<?xml version="1.0" standalone="no"?>
<!DOCTYPE svg PUBLIC "-//W3C//DTD SVG 20010904//EN"
 "http://www.w3.org/TR/2001/REC-SVG-20010904/DTD/svg10.dtd">
<svg version="1.0" xmlns="http://www.w3.org/2000/svg"
 width="495.000000pt" height="506.000000pt" viewBox="0 0 495.000000 506.000000"
 preserveAspectRatio="xMidYMid meet">

<g transform="translate(0.000000,506.000000) scale(0.100000,-0.100000)"
fill="#000000" stroke="none">
<path d="M2360 4955 c-8 -2 -49 -9 -90 -15 -391 -64 -738 -368 -865 -757 -63
-192 -70 -423 -21 -618 53 -206 191 -431 349 -567 163 -140 384 -243 570 -264
32 -4 56 -8 54 -10 -2 -2 -53 -9 -113 -15 -984 -95 -1809 -782 -2083 -1734
-53 -183 -82 -377 -84 -557 -2 -171 1 -183 67 -232 l27 -21 2299 0 2299 0 27
21 c64 47 69 63 68 212 -4 418 -146 870 -392 1241 -402 608 -1054 999 -1782
1071 -63 6 -116 12 -117 14 -2 2 23 6 54 9 341 37 680 283 847 614 339 678
-99 1497 -858 1602 -70 10 -218 13 -256 6z m315 -340 c93 -25 233 -98 306
-159 123 -103 221 -257 265 -416 25 -90 25 -309 0 -400 -25 -94 -97 -235 -155
-307 -98 -119 -266 -227 -421 -269 -47 -13 -102 -18 -200 -18 -159 0 -221 14
-355 79 -163 79 -281 197 -360 360 -65 134 -79 196 -79 355 0 159 14 221 79
355 114 234 320 385 595 439 50 9 266 -3 325 -19z m115 -2240 c363 -61 678
-202 961 -429 424 -340 699 -849 764 -1414 l6 -52 -2051 0 -2051 0 6 48 c60
448 202 793 458 1112 191 238 420 420 700 555 212 103 434 168 672 195 113 12
422 4 535 -15z"/>
<path d="M1109 3337 c-97 -65 -106 -172 -21 -259 l36 -38 -464 0 c-463 0 -465
0 -504 -23 -107 -60 -107 -214 0 -274 39 -23 41 -23 504 -23 l464 0 -36 -37
c-62 -64 -75 -135 -37 -203 39 -69 140 -101 207 -66 15 8 111 99 214 203 157
158 187 194 193 226 16 85 8 98 -193 300 -103 104 -199 195 -214 203 -42 22
-109 18 -149 -9z"/>
</g>
</svg>
