<?xml version="1.0" encoding="UTF-8"?>
<svg xmlns="http://www.w3.org/2000/svg" xmlns:xlink="http://www.w3.org/1999/xlink" width="400pt" height="400pt" viewBox="0 0 400 400" version="1.1">
<g id="surface1">
<path style=" stroke:none;fill-rule:nonzero;fill:rgb(0%,26.27451%,48.235294%);fill-opacity:1;" d="M 331.113281 154.03125 C 329.167969 157.21875 327.363281 158.195312 322.636719 158.886719 C 319.445312 159.304688 313.886719 160.136719 310.417969 160.554688 C 306.945312 161.113281 304.167969 161.945312 304.167969 162.5 C 304.167969 163.054688 307.636719 163.886719 311.945312 164.304688 C 322.363281 165.417969 323.613281 166.804688 320.136719 173.332031 C 318.195312 177.082031 316.25 178.613281 313.613281 178.886719 C 309.582031 179.304688 308.46875 181.25 311.386719 182.21875 C 313.332031 182.917969 309.167969 189.03125 300 199.167969 C 293.75 206.113281 270.136719 226.25 256.945312 235.832031 L 246.804688 243.195312 L 239.03125 237.917969 C 205.695312 215.136719 170.832031 178.75 174.167969 170.136719 C 175.136719 167.363281 184.582031 167.5 194.03125 170.417969 C 200.695312 172.5 201.667969 172.5 203.613281 170.554688 C 205.554688 168.75 204.71875 168.195312 196.25 165.554688 C 166.804688 156.25 160.832031 169.582031 182.363281 196.25 C 185.96875 200.832031 186.113281 201.386719 184.582031 207.5 C 183.75 211.113281 183.195312 219.03125 183.613281 225.417969 C 184.304688 238.054688 188.195312 248.75 195.96875 258.613281 C 200.96875 264.863281 203.054688 264.863281 213.46875 258.75 L 219.445312 255.28125 L 216.113281 252.636719 C 214.304688 251.25 209.863281 248.75 206.25 247.21875 C 200.136719 244.582031 194.582031 239.71875 194.445312 236.945312 C 194.445312 236.25 193.46875 235 192.21875 234.03125 C 190.554688 232.917969 189.445312 228.613281 188.46875 219.03125 C 187.636719 211.53125 187.5 205.136719 187.917969 204.71875 C 188.46875 204.167969 193.613281 208.054688 199.582031 213.332031 C 205.554688 218.613281 212.78125 225 215.554688 227.363281 C 219.71875 230.96875 220.28125 231.804688 218.332031 232.636719 C 217.082031 233.054688 215.832031 232.78125 215.554688 231.945312 C 214.582031 229.167969 210.554688 225.96875 210 227.636719 C 209.71875 228.46875 207.917969 229.167969 206.113281 229.167969 C 203.332031 229.167969 202.78125 229.863281 202.78125 233.195312 C 202.78125 237.636719 208.195312 245.695312 208.332031 241.386719 C 208.332031 240 210.695312 237.78125 213.886719 236.113281 C 220.28125 232.917969 220.96875 232.78125 220.417969 235 C 220.28125 236.113281 222.917969 237.636719 226.804688 238.75 C 234.304688 241.113281 235.136719 242.21875 229.167969 242.636719 C 226.804688 242.78125 225 242.363281 225 241.667969 C 225 240.832031 223.75 240.28125 222.363281 240.28125 C 220.832031 240.28125 219.167969 239.582031 218.75 238.886719 C 218.332031 238.054688 216.667969 237.5 215.136719 237.5 C 213.195312 237.5 212.5 238.46875 212.5 241.667969 C 212.5 244.863281 213.054688 245.832031 215.28125 245.832031 C 217.082031 245.832031 218.054688 246.804688 218.054688 248.46875 C 218.054688 253.054688 221.113281 254.304688 225 251.386719 C 226.945312 249.863281 229.304688 248.613281 230.28125 248.613281 C 231.25 248.613281 233.613281 247.636719 235.417969 246.386719 C 237.21875 245.136719 239.445312 244.582031 240.417969 245.136719 C 244.863281 247.917969 194.863281 273.75 177.5 277.636719 C 160.96875 281.386719 160.96875 272.363281 177.363281 253.195312 C 181.804688 247.917969 183.332031 245.136719 182.636719 243.46875 C 181.804688 241.386719 180.554688 242.21875 174.863281 248.46875 C 146.667969 278.886719 160.136719 293.195312 200.417969 275.417969 L 208.332031 271.804688 L 216.386719 275.417969 C 225.832031 279.582031 234.03125 281.945312 239.304688 281.945312 C 242.636719 281.945312 242.917969 281.667969 241.667969 279.304688 C 240.96875 277.78125 238.886719 276.113281 237.21875 275.695312 C 233.46875 274.582031 225 266.804688 225 264.71875 C 225 262.636719 241.25 252.78125 243.46875 253.46875 C 244.304688 253.75 246.945312 254.304688 249.167969 254.863281 C 252.082031 255.417969 252.917969 256.25 252.363281 258.332031 C 251.804688 260.554688 252.21875 260.832031 255.695312 260.136719 C 264.445312 258.46875 270.136719 263.46875 264.582031 268.054688 C 263.46875 269.03125 262.5 270.96875 262.5 272.363281 C 262.5 273.75 261.25 275.695312 259.71875 276.667969 C 258.195312 277.636719 256.945312 278.886719 256.945312 279.445312 C 256.945312 281.667969 261.25 280.417969 271.667969 275 L 282.21875 269.582031 L 288.75 272.78125 C 297.5 277.363281 313.195312 281.945312 319.304688 281.945312 C 335.832031 281.945312 334.03125 266.113281 314.863281 245.136719 C 307.636719 237.082031 307.363281 236.945312 306.25 240.136719 C 305.554688 242.5 305.832031 244.03125 307.21875 245 C 310.96875 247.78125 322.636719 263.054688 324.445312 267.636719 C 325.554688 270 325.96875 273.054688 325.417969 274.445312 C 324.03125 278.054688 311.25 276.25 296.386719 270.28125 C 282.636719 264.71875 254.03125 248.75 253.054688 246.113281 C 251.945312 242.78125 257.082031 244.582031 271.804688 252.78125 C 280 257.363281 287.5 261.113281 288.46875 261.113281 C 290.832031 261.113281 298.613281 250.28125 298.613281 247.082031 C 298.613281 245.695312 299.304688 244.167969 300 243.75 C 300.832031 243.332031 301.386719 242.21875 301.386719 241.386719 C 301.386719 240.554688 300.28125 240.832031 298.886719 242.082031 C 297.5 243.46875 295.96875 244.445312 295.417969 244.445312 C 293.332031 244.445312 290.28125 234.582031 289.71875 226.25 L 289.167969 216.945312 L 299.582031 206.804688 C 305.136719 201.113281 311.386719 194.167969 313.46875 191.25 C 316.113281 187.5 317.78125 186.25 319.582031 186.804688 C 321.945312 187.636719 321.945312 187.21875 320.695312 183.332031 C 319.304688 179.582031 319.582031 178.46875 322.78125 174.304688 C 327.082031 168.613281 328.886719 169.167969 335.28125 178.195312 C 340.96875 185.96875 341.25 183.054688 336.113281 170.96875 C 331.945312 161.113281 331.804688 160.695312 333.886719 155.417969 C 336.386719 149.03125 334.582031 148.195312 331.113281 154.03125 Z M 222.21875 243.054688 C 222.21875 243.75 221.945312 244.445312 221.667969 244.445312 C 221.25 244.445312 220.554688 243.75 220.136719 243.054688 C 219.71875 242.21875 220 241.667969 220.695312 241.667969 C 221.53125 241.667969 222.21875 242.21875 222.21875 243.054688 Z M 222.21875 243.054688 "/>
<path style=" stroke:none;fill-rule:nonzero;fill:rgb(0%,26.27451%,48.235294%);fill-opacity:1;" d="M 241.667969 160.96875 C 245 162.21875 244.863281 162.21875 240.28125 162.5 C 237.082031 162.78125 236.386719 163.054688 238.332031 163.46875 C 240 163.75 242.5 165.28125 243.75 166.667969 C 245.96875 169.03125 245.96875 169.582031 243.886719 172.363281 C 242.636719 174.167969 242.082031 176.804688 242.5 178.75 C 243.054688 180.96875 242.78125 181.945312 241.386719 181.945312 C 238.195312 181.945312 235.136719 177.636719 234.167969 171.945312 C 233.054688 165.96875 231.945312 164.863281 229.167969 166.804688 C 227.636719 167.917969 227.5 168.46875 228.75 168.886719 C 229.71875 169.304688 230 170.554688 229.582031 171.667969 C 229.167969 172.78125 229.582031 173.613281 230.417969 173.613281 C 231.25 173.613281 231.945312 174.582031 231.945312 175.832031 C 231.945312 176.945312 231.386719 177.5 230.554688 177.082031 C 229.863281 176.667969 229.582031 177.082031 230 178.195312 C 231.113281 181.25 227.78125 182.636719 225.28125 180.136719 C 223.613281 178.332031 223.46875 177.5 224.863281 175.832031 C 225.832031 174.71875 225.96875 173.46875 225.28125 173.054688 C 223.886719 172.21875 221.53125 175.96875 221.945312 178.054688 C 222.082031 178.613281 220 180 217.363281 181.113281 C 212.21875 183.332031 210.695312 187.917969 214.582031 189.445312 C 215.695312 189.863281 216.667969 191.25 216.667969 192.636719 C 216.804688 194.445312 217.363281 194.03125 218.886719 191.25 C 220 189.167969 220.554688 186.945312 220.136719 186.25 C 219.03125 184.304688 220.96875 180.554688 223.054688 180.554688 C 224.167969 180.554688 225.417969 181.386719 225.832031 182.5 C 226.25 183.613281 227.5 184.167969 228.613281 183.75 C 229.71875 183.332031 230.554688 183.613281 230.554688 184.304688 C 230.554688 185.136719 231.804688 187.082031 233.332031 188.886719 C 234.863281 190.695312 236.113281 192.917969 236.113281 193.75 C 236.113281 194.71875 237.082031 195.832031 238.195312 196.386719 C 241.53125 197.636719 240.554688 200 236.667969 200 C 233.75 200 233.332031 199.445312 234.03125 197.21875 C 235.28125 193.332031 234.167969 193.75 231.25 198.195312 C 229.03125 201.386719 229.03125 201.667969 231.113281 200.96875 C 234.304688 199.71875 234.03125 203.75 230.695312 205.417969 C 229.304688 206.25 227.78125 206.53125 227.363281 205.96875 C 226.804688 205.554688 225.96875 206.386719 225.417969 207.78125 C 225 209.167969 223.332031 211.53125 221.804688 212.78125 C 220 214.445312 219.582031 215.832031 220.417969 217.363281 C 221.945312 219.863281 245.695312 237.5 247.78125 237.5 C 249.304688 237.5 276.53125 216.945312 285.417969 209.03125 C 290.417969 204.71875 290.695312 204.03125 288.613281 202.78125 C 287.21875 201.945312 286.113281 200.28125 286.113281 199.304688 C 286.113281 198.195312 285.554688 197.21875 284.71875 197.21875 C 282.78125 197.21875 283.054688 193.332031 285 192.78125 C 287.21875 191.945312 282.082031 185.417969 279.167969 185.28125 C 275.695312 185.136719 272.21875 183.054688 273.054688 181.804688 C 273.46875 180.96875 273.054688 179.445312 272.082031 178.332031 C 269.167969 174.71875 271.667969 174.863281 277.21875 178.613281 C 280.96875 181.25 281.945312 181.53125 280.554688 179.71875 C 276.667969 174.863281 275.695312 174.03125 273.886719 174.71875 C 273.054688 175 272.21875 174.582031 272.21875 173.75 C 272.21875 172.917969 271.53125 172.21875 270.695312 172.21875 C 269.863281 172.21875 267.21875 170.695312 264.71875 168.75 C 262.21875 166.804688 259.71875 165.28125 259.03125 165.28125 C 258.46875 165.28125 257.21875 164.304688 256.386719 163.195312 C 255.417969 161.804688 251.804688 160.695312 246.53125 160.417969 C 240.554688 160 239.167969 160.136719 241.667969 160.96875 Z M 260.28125 171.667969 C 260.695312 172.917969 261.113281 174.167969 261.113281 174.445312 C 261.113281 175.554688 257.636719 175 255.554688 173.613281 C 253.75 172.363281 253.75 172.082031 255.554688 170.832031 C 258.46875 169.03125 259.304688 169.167969 260.28125 171.667969 Z M 260.28125 171.667969 "/>
<path style=" stroke:none;fill-rule:nonzero;fill:rgb(0%,26.27451%,48.235294%);fill-opacity:1;" d="M 224.71875 163.054688 C 217.78125 165.554688 211.386719 169.71875 213.613281 170.554688 C 214.445312 170.832031 216.25 170 217.5 168.75 C 218.75 167.5 220.695312 166.804688 221.667969 167.21875 C 222.78125 167.636719 223.613281 167.363281 223.613281 166.667969 C 223.613281 165.832031 225.695312 164.445312 228.195312 163.332031 C 233.886719 160.832031 231.53125 160.695312 224.71875 163.054688 Z M 224.71875 163.054688 "/>
<path style=" stroke:none;fill-rule:nonzero;fill:rgb(0%,26.27451%,48.235294%);fill-opacity:1;" d="M 194.03125 185.96875 C 192.082031 188.886719 190.832031 191.804688 191.25 192.21875 C 191.804688 192.636719 193.613281 190.417969 195.417969 187.363281 C 199.582031 179.863281 198.75 178.886719 194.03125 185.96875 Z M 194.03125 185.96875 "/>
<path style=" stroke:none;fill-rule:nonzero;fill:rgb(0%,26.27451%,48.235294%);fill-opacity:1;" d="M 290.28125 193.054688 C 290.28125 194.582031 290.96875 195.832031 291.804688 195.832031 C 292.636719 195.832031 293.054688 197.082031 292.636719 198.613281 C 292.21875 200.136719 292.5 201.386719 293.195312 201.386719 C 293.886719 201.386719 294.445312 200.554688 294.445312 199.445312 C 294.445312 198.46875 295.832031 197.082031 297.636719 196.667969 L 300.695312 195.695312 L 297.78125 194.445312 C 296.113281 193.75 294.304688 192.636719 293.75 191.804688 C 292.363281 189.304688 290.28125 190.136719 290.28125 193.054688 Z M 290.28125 193.054688 "/>
</g>
</svg>
